<svg width="34" height="34" viewBox="0 0 34 34" fill="none" xmlns="http://www.w3.org/2000/svg">
<path d="M8.33333 4.16667C8.33333 3.0616 8.77232 2.00179 9.55372 1.22039C10.3351 0.438987 11.3949 0 12.5 0H20.8333C21.9384 0 22.9982 0.438987 23.7796 1.22039C24.561 2.00179 25 3.0616 25 4.16667V8.33333H29.1667C30.2717 8.33333 31.3315 8.77232 32.1129 9.55372C32.8943 10.3351 33.3333 11.3949 33.3333 12.5V20.8333C33.3333 21.9384 32.8943 22.9982 32.1129 23.7796C31.3315 24.561 30.2717 25 29.1667 25H25V29.1667C25 30.2717 24.561 31.3315 23.7796 32.1129C22.9982 32.8943 21.9384 33.3333 20.8333 33.3333H12.5C11.3949 33.3333 10.3351 32.8943 9.55372 32.1129C8.77232 31.3315 8.33333 30.2717 8.33333 29.1667V25H4.16667C3.0616 25 2.00179 24.561 1.22039 23.7796C0.438987 22.9982 0 21.9384 0 20.8333V12.5C0 11.3949 0.438987 10.3351 1.22039 9.55372C2.00179 8.77232 3.0616 8.33333 4.16667 8.33333H8.33333V4.16667ZM20.8333 4.16667H12.5V10.4167C12.5 10.9692 12.2805 11.4991 11.8898 11.8898C11.4991 12.2805 10.9692 12.5 10.4167 12.5H4.16667V20.8333H10.4167C10.9692 20.8333 11.4991 21.0528 11.8898 21.4435C12.2805 21.8342 12.5 22.3641 12.5 22.9167V29.1667H20.8333V22.9167C20.8333 22.3641 21.0528 21.8342 21.4435 21.4435C21.8342 21.0528 22.3641 20.8333 22.9167 20.8333H29.1667V12.5H22.9167C22.3641 12.5 21.8342 12.2805 21.4435 11.8898C21.0528 11.4991 20.8333 10.9692 20.8333 10.4167V4.16667Z" fill="#4D5CAB"/>
</svg>
